<?xml version="1.0" standalone="no"?>
<!DOCTYPE svg PUBLIC "-//W3C//DTD SVG 20010904//EN"
 "http://www.w3.org/TR/2001/REC-SVG-20010904/DTD/svg10.dtd">
<svg version="1.0" xmlns="http://www.w3.org/2000/svg"
 width="200.000000pt" height="200.000000pt" viewBox="0 0 200.000000 200.000000"
 preserveAspectRatio="xMidYMid meet">

<g transform="translate(0.000000,200.000000) scale(0.100000,-0.100000)"
fill="#000000" stroke="none">
<path d="M1486 1522 c18 -11 35 -26 40 -33 4 -7 -7 -3 -25 10 -17 13 -49 25
-69 28 -44 6 -49 1 -116 -112 -39 -65 -51 -99 -68 -183 -12 -56 -23 -101 -25
-98 -2 2 -11 46 -19 97 -9 52 -19 96 -24 99 -5 3 -48 7 -94 8 l-85 3 -5 -33
c-3 -18 -15 -118 -26 -223 -12 -104 -23 -205 -27 -222 l-5 -33 91 0 90 0 3
103 3 102 19 -72 18 -73 58 0 58 0 7 65 c4 36 10 63 14 60 3 -4 11 -45 16 -93
l10 -87 94 -3 93 -3 -5 33 c-3 18 -16 130 -28 248 l-22 216 43 67 43 68 27
-48 c26 -44 27 -50 12 -65 -14 -17 -13 -18 9 -18 13 0 47 -3 76 -6 l51 -7 34
64 c44 85 43 82 20 70 -19 -10 -25 -6 -52 34 -30 44 -32 45 -84 45 -29 0 -82
3 -117 6 l-64 6 31 -20z"/>
<path d="M248 1332 l-108 -3 0 -249 0 -250 90 0 89 0 3 108 3 107 36 -105 36
-105 261 -3 262 -3 0 66 0 65 -42 0 c-24 0 -60 3 -80 6 -32 6 -38 11 -38 30 0
23 3 24 80 24 l80 0 0 50 0 50 -80 0 -80 0 0 40 0 40 80 0 80 0 0 70 0 70
-162 -2 -163 -3 -5 -235 -5 -235 -34 93 -34 93 17 51 c33 103 10 174 -67 207
-53 23 -86 27 -219 23z m110 -161 c4 -27 -16 -109 -29 -117 -5 -3 -9 29 -9 71
0 67 2 76 18 73 9 -2 19 -14 20 -27z"/>
<path d="M1737 1274 l-68 -35 51 -94 51 -95 -60 0 c-53 0 -60 2 -63 21 -2 17
-11 9 -46 -41 -24 -33 -42 -64 -40 -68 11 -25 74 -121 80 -122 4 0 5 9 3 20
-3 18 2 20 41 20 61 0 75 10 116 77 19 32 43 71 54 88 19 29 19 29 -1 21 -37
-15 -60 -17 -29 -3 42 20 74 56 74 83 0 24 -71 156 -86 160 -5 2 -40 -13 -77
-32z"/>
<path d="M150 680 c0 -100 0 -100 25 -100 21 0 30 11 58 67 l34 67 7 -67 c6
-57 11 -67 27 -67 14 0 32 26 69 100 45 90 48 100 30 100 -15 0 -29 -17 -53
-66 l-32 -66 -5 64 c-4 56 -8 63 -27 66 -18 3 -28 -8 -57 -65 l-35 -68 -1 68
c0 60 -2 67 -20 67 -19 0 -20 -7 -20 -100z"/>
<path d="M426 683 c-47 -82 -53 -99 -39 -102 10 -2 24 6 31 18 20 30 102 31
102 1 0 -14 7 -20 21 -20 18 0 20 4 15 33 -3 17 -10 62 -17 100 -10 60 -13 67
-34 67 -19 0 -34 -18 -79 -97z m83 -5 c1 -13 -7 -18 -24 -18 -30 0 -30 2 -8
43 15 29 17 30 24 12 4 -11 8 -28 8 -37z"/>
<path d="M636 761 c-28 -31 -16 -62 34 -91 25 -15 45 -33 45 -41 0 -21 -63
-25 -71 -5 -3 9 -15 16 -26 16 -30 0 -19 -42 16 -59 41 -19 96 -5 116 31 19
35 8 55 -46 84 -21 11 -39 27 -39 35 0 20 53 25 61 5 7 -19 44 -21 44 -3 0 44
-101 65 -134 28z"/>
<path d="M810 765 c0 -9 9 -15 25 -15 32 0 32 -5 0 -147 -4 -18 -1 -23 14 -23
21 0 30 22 48 120 8 41 11 45 41 48 20 2 32 9 32 18 0 11 -17 14 -80 14 -64 0
-80 -3 -80 -15z"/>
<path d="M990 723 c-6 -32 -16 -74 -21 -93 -5 -19 -9 -38 -9 -42 0 -5 36 -8
79 -8 61 0 80 3 85 15 4 12 -5 15 -54 15 -62 0 -69 6 -54 44 5 12 20 16 60 16
41 0 54 4 54 15 0 11 -12 15 -51 15 -47 0 -50 2 -47 23 3 19 10 22 61 25 42 2
57 7 57 17 0 12 -16 15 -74 15 l-75 0 -11 -57z"/>
<path d="M1297 769 c-46 -27 -63 -128 -28 -170 27 -33 90 -33 125 0 30 28 32
39 10 48 -9 3 -21 -3 -30 -16 -17 -23 -53 -28 -72 -9 -19 19 -14 73 9 102 23
29 66 35 75 11 8 -19 44 -20 44 -2 0 39 -87 63 -133 36z"/>
<path d="M1497 756 c-45 -41 -54 -118 -20 -158 37 -43 129 -25 157 31 23 43
21 106 -4 131 -29 29 -99 27 -133 -4z m101 -18 c33 -33 -5 -128 -52 -128 -31
0 -46 18 -46 56 0 60 63 107 98 72z"/>
<path d="M1705 758 c-8 -35 -35 -169 -35 -174 0 -2 8 -4 18 -4 15 0 21 15 34
78 l16 77 1 -62 c1 -74 8 -93 31 -93 12 0 27 22 51 75 18 41 34 73 36 71 2 -2
-3 -32 -12 -67 -19 -80 -19 -79 4 -79 15 0 20 12 29 68 6 37 14 82 18 100 6
30 5 32 -23 32 -26 0 -33 -7 -58 -60 -15 -32 -32 -57 -37 -54 -4 3 -8 30 -8
60 0 53 0 54 -30 54 -23 0 -31 -5 -35 -22z"/>
<path d="M1156 594 c-4 -11 0 -15 16 -12 12 2 23 9 26 16 6 18 -35 15 -42 -4z"/>
</g>
</svg>
